<svg xmlns="http://www.w3.org/2000/svg" width="1920" height="420" viewBox="0 0 1920 420"><defs><linearGradient id="seat" x1="0" y1="0" x2="0" y2="1"><stop stop-color="#e21b2f"/><stop offset="1" stop-color="#250006"/></linearGradient><filter id="glow"><feGaussianBlur stdDeviation="3" result="b"/><feMerge><feMergeNode in="b"/><feMergeNode in="SourceGraphic"/></feMerge></filter></defs><rect width="1920" height="420" fill="transparent"/><rect x="-80" y="80" width="70" height="38" rx="19" fill="url(#seat)" opacity="0.55" stroke="#ff3348" stroke-opacity="0.25" filter="url(#glow)"/><rect x="0" y="80" width="70" height="38" rx="19" fill="url(#seat)" opacity="0.55" stroke="#ff3348" stroke-opacity="0.25" filter="url(#glow)"/><rect x="80" y="80" width="70" height="38" rx="19" fill="url(#seat)" opacity="0.55" stroke="#ff3348" stroke-opacity="0.25" filter="url(#glow)"/><rect x="160" y="80" width="70" height="38" rx="19" fill="url(#seat)" opacity="0.55" stroke="#ff3348" stroke-opacity="0.25" filter="url(#glow)"/><rect x="240" y="80" width="70" height="38" rx="19" fill="url(#seat)" opacity="0.55" stroke="#ff3348" stroke-opacity="0.25" filter="url(#glow)"/><rect x="320" y="80" width="70" height="38" rx="19" fill="url(#seat)" opacity="0.55" stroke="#ff3348" stroke-opacity="0.25" filter="url(#glow)"/><rect x="400" y="80" width="70" height="38" rx="19" fill="url(#seat)" opacity="0.55" stroke="#ff3348" stroke-opacity="0.25" filter="url(#glow)"/><rect x="480" y="80" width="70" height="38" rx="19" fill="url(#seat)" opacity="0.55" stroke="#ff3348" stroke-opacity="0.25" filter="url(#glow)"/><rect x="560" y="80" width="70" height="38" rx="19" fill="url(#seat)" opacity="0.55" stroke="#ff3348" stroke-opacity="0.25" filter="url(#glow)"/><rect x="640" y="80" width="70" height="38" rx="19" fill="url(#seat)" opacity="0.55" stroke="#ff3348" stroke-opacity="0.25" filter="url(#glow)"/><rect x="720" y="80" width="70" height="38" rx="19" fill="url(#seat)" opacity="0.55" stroke="#ff3348" stroke-opacity="0.25" filter="url(#glow)"/><rect x="800" y="80" width="70" height="38" rx="19" fill="url(#seat)" opacity="0.55" stroke="#ff3348" stroke-opacity="0.25" filter="url(#glow)"/><rect x="880" y="80" width="70" height="38" rx="19" fill="url(#seat)" opacity="0.55" stroke="#ff3348" stroke-opacity="0.25" filter="url(#glow)"/><rect x="960" y="80" width="70" height="38" rx="19" fill="url(#seat)" opacity="0.55" stroke="#ff3348" stroke-opacity="0.25" filter="url(#glow)"/><rect x="1040" y="80" width="70" height="38" rx="19" fill="url(#seat)" opacity="0.55" stroke="#ff3348" stroke-opacity="0.25" filter="url(#glow)"/><rect x="1120" y="80" width="70" height="38" rx="19" fill="url(#seat)" opacity="0.55" stroke="#ff3348" stroke-opacity="0.25" filter="url(#glow)"/><rect x="1200" y="80" width="70" height="38" rx="19" fill="url(#seat)" opacity="0.55" stroke="#ff3348" stroke-opacity="0.25" filter="url(#glow)"/><rect x="1280" y="80" width="70" height="38" rx="19" fill="url(#seat)" opacity="0.55" stroke="#ff3348" stroke-opacity="0.25" filter="url(#glow)"/><rect x="1360" y="80" width="70" height="38" rx="19" fill="url(#seat)" opacity="0.55" stroke="#ff3348" stroke-opacity="0.25" filter="url(#glow)"/><rect x="1440" y="80" width="70" height="38" rx="19" fill="url(#seat)" opacity="0.55" stroke="#ff3348" stroke-opacity="0.25" filter="url(#glow)"/><rect x="1520" y="80" width="70" height="38" rx="19" fill="url(#seat)" opacity="0.55" stroke="#ff3348" stroke-opacity="0.25" filter="url(#glow)"/><rect x="1600" y="80" width="70" height="38" rx="19" fill="url(#seat)" opacity="0.55" stroke="#ff3348" stroke-opacity="0.25" filter="url(#glow)"/><rect x="1680" y="80" width="70" height="38" rx="19" fill="url(#seat)" opacity="0.55" stroke="#ff3348" stroke-opacity="0.25" filter="url(#glow)"/><rect x="1760" y="80" width="70" height="38" rx="19" fill="url(#seat)" opacity="0.55" stroke="#ff3348" stroke-opacity="0.25" filter="url(#glow)"/><rect x="1840" y="80" width="70" height="38" rx="19" fill="url(#seat)" opacity="0.55" stroke="#ff3348" stroke-opacity="0.25" filter="url(#glow)"/><rect x="-123" y="122" width="86" height="45" rx="22" fill="url(#seat)" opacity="0.61" stroke="#ff3348" stroke-opacity="0.25" filter="url(#glow)"/><rect x="-25" y="122" width="86" height="45" rx="22" fill="url(#seat)" opacity="0.61" stroke="#ff3348" stroke-opacity="0.25" filter="url(#glow)"/><rect x="73" y="122" width="86" height="45" rx="22" fill="url(#seat)" opacity="0.61" stroke="#ff3348" stroke-opacity="0.25" filter="url(#glow)"/><rect x="171" y="122" width="86" height="45" rx="22" fill="url(#seat)" opacity="0.61" stroke="#ff3348" stroke-opacity="0.25" filter="url(#glow)"/><rect x="269" y="122" width="86" height="45" rx="22" fill="url(#seat)" opacity="0.61" stroke="#ff3348" stroke-opacity="0.25" filter="url(#glow)"/><rect x="367" y="122" width="86" height="45" rx="22" fill="url(#seat)" opacity="0.61" stroke="#ff3348" stroke-opacity="0.25" filter="url(#glow)"/><rect x="465" y="122" width="86" height="45" rx="22" fill="url(#seat)" opacity="0.61" stroke="#ff3348" stroke-opacity="0.25" filter="url(#glow)"/><rect x="563" y="122" width="86" height="45" rx="22" fill="url(#seat)" opacity="0.61" stroke="#ff3348" stroke-opacity="0.25" filter="url(#glow)"/><rect x="661" y="122" width="86" height="45" rx="22" fill="url(#seat)" opacity="0.61" stroke="#ff3348" stroke-opacity="0.25" filter="url(#glow)"/><rect x="759" y="122" width="86" height="45" rx="22" fill="url(#seat)" opacity="0.61" stroke="#ff3348" stroke-opacity="0.25" filter="url(#glow)"/><rect x="857" y="122" width="86" height="45" rx="22" fill="url(#seat)" opacity="0.61" stroke="#ff3348" stroke-opacity="0.25" filter="url(#glow)"/><rect x="955" y="122" width="86" height="45" rx="22" fill="url(#seat)" opacity="0.61" stroke="#ff3348" stroke-opacity="0.25" filter="url(#glow)"/><rect x="1053" y="122" width="86" height="45" rx="22" fill="url(#seat)" opacity="0.61" stroke="#ff3348" stroke-opacity="0.25" filter="url(#glow)"/><rect x="1151" y="122" width="86" height="45" rx="22" fill="url(#seat)" opacity="0.61" stroke="#ff3348" stroke-opacity="0.25" filter="url(#glow)"/><rect x="1249" y="122" width="86" height="45" rx="22" fill="url(#seat)" opacity="0.61" stroke="#ff3348" stroke-opacity="0.25" filter="url(#glow)"/><rect x="1347" y="122" width="86" height="45" rx="22" fill="url(#seat)" opacity="0.61" stroke="#ff3348" stroke-opacity="0.25" filter="url(#glow)"/><rect x="1445" y="122" width="86" height="45" rx="22" fill="url(#seat)" opacity="0.61" stroke="#ff3348" stroke-opacity="0.25" filter="url(#glow)"/><rect x="1543" y="122" width="86" height="45" rx="22" fill="url(#seat)" opacity="0.61" stroke="#ff3348" stroke-opacity="0.25" filter="url(#glow)"/><rect x="1641" y="122" width="86" height="45" rx="22" fill="url(#seat)" opacity="0.61" stroke="#ff3348" stroke-opacity="0.25" filter="url(#glow)"/><rect x="1739" y="122" width="86" height="45" rx="22" fill="url(#seat)" opacity="0.61" stroke="#ff3348" stroke-opacity="0.25" filter="url(#glow)"/><rect x="1837" y="122" width="86" height="45" rx="22" fill="url(#seat)" opacity="0.61" stroke="#ff3348" stroke-opacity="0.25" filter="url(#glow)"/><rect x="-80" y="164" width="102" height="52" rx="26" fill="url(#seat)" opacity="0.66" stroke="#ff3348" stroke-opacity="0.25" filter="url(#glow)"/><rect x="36" y="164" width="102" height="52" rx="26" fill="url(#seat)" opacity="0.66" stroke="#ff3348" stroke-opacity="0.25" filter="url(#glow)"/><rect x="152" y="164" width="102" height="52" rx="26" fill="url(#seat)" opacity="0.66" stroke="#ff3348" stroke-opacity="0.25" filter="url(#glow)"/><rect x="268" y="164" width="102" height="52" rx="26" fill="url(#seat)" opacity="0.66" stroke="#ff3348" stroke-opacity="0.25" filter="url(#glow)"/><rect x="384" y="164" width="102" height="52" rx="26" fill="url(#seat)" opacity="0.66" stroke="#ff3348" stroke-opacity="0.25" filter="url(#glow)"/><rect x="500" y="164" width="102" height="52" rx="26" fill="url(#seat)" opacity="0.66" stroke="#ff3348" stroke-opacity="0.25" filter="url(#glow)"/><rect x="616" y="164" width="102" height="52" rx="26" fill="url(#seat)" opacity="0.66" stroke="#ff3348" stroke-opacity="0.25" filter="url(#glow)"/><rect x="732" y="164" width="102" height="52" rx="26" fill="url(#seat)" opacity="0.66" stroke="#ff3348" stroke-opacity="0.25" filter="url(#glow)"/><rect x="848" y="164" width="102" height="52" rx="26" fill="url(#seat)" opacity="0.66" stroke="#ff3348" stroke-opacity="0.25" filter="url(#glow)"/><rect x="964" y="164" width="102" height="52" rx="26" fill="url(#seat)" opacity="0.66" stroke="#ff3348" stroke-opacity="0.25" filter="url(#glow)"/><rect x="1080" y="164" width="102" height="52" rx="26" fill="url(#seat)" opacity="0.66" stroke="#ff3348" stroke-opacity="0.25" filter="url(#glow)"/><rect x="1196" y="164" width="102" height="52" rx="26" fill="url(#seat)" opacity="0.66" stroke="#ff3348" stroke-opacity="0.25" filter="url(#glow)"/><rect x="1312" y="164" width="102" height="52" rx="26" fill="url(#seat)" opacity="0.66" stroke="#ff3348" stroke-opacity="0.25" filter="url(#glow)"/><rect x="1428" y="164" width="102" height="52" rx="26" fill="url(#seat)" opacity="0.66" stroke="#ff3348" stroke-opacity="0.25" filter="url(#glow)"/><rect x="1544" y="164" width="102" height="52" rx="26" fill="url(#seat)" opacity="0.66" stroke="#ff3348" stroke-opacity="0.25" filter="url(#glow)"/><rect x="1660" y="164" width="102" height="52" rx="26" fill="url(#seat)" opacity="0.66" stroke="#ff3348" stroke-opacity="0.25" filter="url(#glow)"/><rect x="1776" y="164" width="102" height="52" rx="26" fill="url(#seat)" opacity="0.66" stroke="#ff3348" stroke-opacity="0.25" filter="url(#glow)"/><rect x="1892" y="164" width="102" height="52" rx="26" fill="url(#seat)" opacity="0.66" stroke="#ff3348" stroke-opacity="0.25" filter="url(#glow)"/><rect x="-139" y="206" width="118" height="59" rx="30" fill="url(#seat)" opacity="0.72" stroke="#ff3348" stroke-opacity="0.25" filter="url(#glow)"/><rect x="-5" y="206" width="118" height="59" rx="30" fill="url(#seat)" opacity="0.72" stroke="#ff3348" stroke-opacity="0.25" filter="url(#glow)"/><rect x="129" y="206" width="118" height="59" rx="30" fill="url(#seat)" opacity="0.72" stroke="#ff3348" stroke-opacity="0.25" filter="url(#glow)"/><rect x="263" y="206" width="118" height="59" rx="30" fill="url(#seat)" opacity="0.72" stroke="#ff3348" stroke-opacity="0.25" filter="url(#glow)"/><rect x="397" y="206" width="118" height="59" rx="30" fill="url(#seat)" opacity="0.72" stroke="#ff3348" stroke-opacity="0.25" filter="url(#glow)"/><rect x="531" y="206" width="118" height="59" rx="30" fill="url(#seat)" opacity="0.72" stroke="#ff3348" stroke-opacity="0.25" filter="url(#glow)"/><rect x="665" y="206" width="118" height="59" rx="30" fill="url(#seat)" opacity="0.72" stroke="#ff3348" stroke-opacity="0.25" filter="url(#glow)"/><rect x="799" y="206" width="118" height="59" rx="30" fill="url(#seat)" opacity="0.72" stroke="#ff3348" stroke-opacity="0.25" filter="url(#glow)"/><rect x="933" y="206" width="118" height="59" rx="30" fill="url(#seat)" opacity="0.72" stroke="#ff3348" stroke-opacity="0.25" filter="url(#glow)"/><rect x="1067" y="206" width="118" height="59" rx="30" fill="url(#seat)" opacity="0.72" stroke="#ff3348" stroke-opacity="0.25" filter="url(#glow)"/><rect x="1201" y="206" width="118" height="59" rx="30" fill="url(#seat)" opacity="0.72" stroke="#ff3348" stroke-opacity="0.25" filter="url(#glow)"/><rect x="1335" y="206" width="118" height="59" rx="30" fill="url(#seat)" opacity="0.72" stroke="#ff3348" stroke-opacity="0.25" filter="url(#glow)"/><rect x="1469" y="206" width="118" height="59" rx="30" fill="url(#seat)" opacity="0.72" stroke="#ff3348" stroke-opacity="0.25" filter="url(#glow)"/><rect x="1603" y="206" width="118" height="59" rx="30" fill="url(#seat)" opacity="0.72" stroke="#ff3348" stroke-opacity="0.25" filter="url(#glow)"/><rect x="1737" y="206" width="118" height="59" rx="30" fill="url(#seat)" opacity="0.72" stroke="#ff3348" stroke-opacity="0.25" filter="url(#glow)"/><rect x="1871" y="206" width="118" height="59" rx="30" fill="url(#seat)" opacity="0.72" stroke="#ff3348" stroke-opacity="0.25" filter="url(#glow)"/><rect x="-80" y="248" width="134" height="66" rx="33" fill="url(#seat)" opacity="0.77" stroke="#ff3348" stroke-opacity="0.25" filter="url(#glow)"/><rect x="72" y="248" width="134" height="66" rx="33" fill="url(#seat)" opacity="0.77" stroke="#ff3348" stroke-opacity="0.25" filter="url(#glow)"/><rect x="224" y="248" width="134" height="66" rx="33" fill="url(#seat)" opacity="0.77" stroke="#ff3348" stroke-opacity="0.25" filter="url(#glow)"/><rect x="376" y="248" width="134" height="66" rx="33" fill="url(#seat)" opacity="0.77" stroke="#ff3348" stroke-opacity="0.25" filter="url(#glow)"/><rect x="528" y="248" width="134" height="66" rx="33" fill="url(#seat)" opacity="0.77" stroke="#ff3348" stroke-opacity="0.25" filter="url(#glow)"/><rect x="680" y="248" width="134" height="66" rx="33" fill="url(#seat)" opacity="0.77" stroke="#ff3348" stroke-opacity="0.25" filter="url(#glow)"/><rect x="832" y="248" width="134" height="66" rx="33" fill="url(#seat)" opacity="0.77" stroke="#ff3348" stroke-opacity="0.25" filter="url(#glow)"/><rect x="984" y="248" width="134" height="66" rx="33" fill="url(#seat)" opacity="0.77" stroke="#ff3348" stroke-opacity="0.25" filter="url(#glow)"/><rect x="1136" y="248" width="134" height="66" rx="33" fill="url(#seat)" opacity="0.77" stroke="#ff3348" stroke-opacity="0.25" filter="url(#glow)"/><rect x="1288" y="248" width="134" height="66" rx="33" fill="url(#seat)" opacity="0.77" stroke="#ff3348" stroke-opacity="0.25" filter="url(#glow)"/><rect x="1440" y="248" width="134" height="66" rx="33" fill="url(#seat)" opacity="0.77" stroke="#ff3348" stroke-opacity="0.25" filter="url(#glow)"/><rect x="1592" y="248" width="134" height="66" rx="33" fill="url(#seat)" opacity="0.77" stroke="#ff3348" stroke-opacity="0.25" filter="url(#glow)"/><rect x="1744" y="248" width="134" height="66" rx="33" fill="url(#seat)" opacity="0.77" stroke="#ff3348" stroke-opacity="0.25" filter="url(#glow)"/><rect x="1896" y="248" width="134" height="66" rx="33" fill="url(#seat)" opacity="0.77" stroke="#ff3348" stroke-opacity="0.25" filter="url(#glow)"/><rect x="-155" y="290" width="150" height="73" rx="36" fill="url(#seat)" opacity="0.83" stroke="#ff3348" stroke-opacity="0.25" filter="url(#glow)"/><rect x="15" y="290" width="150" height="73" rx="36" fill="url(#seat)" opacity="0.83" stroke="#ff3348" stroke-opacity="0.25" filter="url(#glow)"/><rect x="185" y="290" width="150" height="73" rx="36" fill="url(#seat)" opacity="0.83" stroke="#ff3348" stroke-opacity="0.25" filter="url(#glow)"/><rect x="355" y="290" width="150" height="73" rx="36" fill="url(#seat)" opacity="0.83" stroke="#ff3348" stroke-opacity="0.25" filter="url(#glow)"/><rect x="525" y="290" width="150" height="73" rx="36" fill="url(#seat)" opacity="0.83" stroke="#ff3348" stroke-opacity="0.25" filter="url(#glow)"/><rect x="695" y="290" width="150" height="73" rx="36" fill="url(#seat)" opacity="0.83" stroke="#ff3348" stroke-opacity="0.25" filter="url(#glow)"/><rect x="865" y="290" width="150" height="73" rx="36" fill="url(#seat)" opacity="0.83" stroke="#ff3348" stroke-opacity="0.25" filter="url(#glow)"/><rect x="1035" y="290" width="150" height="73" rx="36" fill="url(#seat)" opacity="0.83" stroke="#ff3348" stroke-opacity="0.25" filter="url(#glow)"/><rect x="1205" y="290" width="150" height="73" rx="36" fill="url(#seat)" opacity="0.83" stroke="#ff3348" stroke-opacity="0.25" filter="url(#glow)"/><rect x="1375" y="290" width="150" height="73" rx="36" fill="url(#seat)" opacity="0.83" stroke="#ff3348" stroke-opacity="0.25" filter="url(#glow)"/><rect x="1545" y="290" width="150" height="73" rx="36" fill="url(#seat)" opacity="0.83" stroke="#ff3348" stroke-opacity="0.25" filter="url(#glow)"/><rect x="1715" y="290" width="150" height="73" rx="36" fill="url(#seat)" opacity="0.83" stroke="#ff3348" stroke-opacity="0.25" filter="url(#glow)"/><rect x="1885" y="290" width="150" height="73" rx="36" fill="url(#seat)" opacity="0.83" stroke="#ff3348" stroke-opacity="0.25" filter="url(#glow)"/><rect x="-80" y="332" width="166" height="80" rx="40" fill="url(#seat)" opacity="0.88" stroke="#ff3348" stroke-opacity="0.25" filter="url(#glow)"/><rect x="108" y="332" width="166" height="80" rx="40" fill="url(#seat)" opacity="0.88" stroke="#ff3348" stroke-opacity="0.25" filter="url(#glow)"/><rect x="296" y="332" width="166" height="80" rx="40" fill="url(#seat)" opacity="0.88" stroke="#ff3348" stroke-opacity="0.25" filter="url(#glow)"/><rect x="484" y="332" width="166" height="80" rx="40" fill="url(#seat)" opacity="0.88" stroke="#ff3348" stroke-opacity="0.25" filter="url(#glow)"/><rect x="672" y="332" width="166" height="80" rx="40" fill="url(#seat)" opacity="0.88" stroke="#ff3348" stroke-opacity="0.25" filter="url(#glow)"/><rect x="860" y="332" width="166" height="80" rx="40" fill="url(#seat)" opacity="0.88" stroke="#ff3348" stroke-opacity="0.25" filter="url(#glow)"/><rect x="1048" y="332" width="166" height="80" rx="40" fill="url(#seat)" opacity="0.88" stroke="#ff3348" stroke-opacity="0.25" filter="url(#glow)"/><rect x="1236" y="332" width="166" height="80" rx="40" fill="url(#seat)" opacity="0.88" stroke="#ff3348" stroke-opacity="0.25" filter="url(#glow)"/><rect x="1424" y="332" width="166" height="80" rx="40" fill="url(#seat)" opacity="0.88" stroke="#ff3348" stroke-opacity="0.25" filter="url(#glow)"/><rect x="1612" y="332" width="166" height="80" rx="40" fill="url(#seat)" opacity="0.88" stroke="#ff3348" stroke-opacity="0.25" filter="url(#glow)"/><rect x="1800" y="332" width="166" height="80" rx="40" fill="url(#seat)" opacity="0.88" stroke="#ff3348" stroke-opacity="0.25" filter="url(#glow)"/></svg>