<svg xmlns="http://www.w3.org/2000/svg" width="1920" height="1080" viewBox="0 0 1920 1080"><rect width="1920" height="1080" fill="transparent"/><circle cx="1170" cy="33" r="3" fill="#ff8738" opacity="0.51"/><circle cx="422" cy="473" r="3" fill="#ffd27a" opacity="0.55"/><circle cx="328" cy="35" r="3" fill="#ffd27a" opacity="0.22"/><circle cx="1526" cy="369" r="1" fill="#ff8738" opacity="0.67"/><circle cx="1235" cy="363" r="3" fill="#ff8738" opacity="0.34"/><circle cx="1382" cy="268" r="3" fill="#a9dfff" opacity="0.57"/><circle cx="1355" cy="371" r="1.5" fill="#ff8738" opacity="0.62"/><circle cx="490" cy="450" r="3" fill="#ffffff" opacity="0.51"/><circle cx="482" cy="137" r="1.5" fill="#ffd27a" opacity="0.49"/><circle cx="1581" cy="245" r="2" fill="#ff8738" opacity="0.43"/><circle cx="133" cy="668" r="2" fill="#a9dfff" opacity="0.66"/><circle cx="845" cy="244" r="1" fill="#ffffff" opacity="0.46"/><circle cx="1675" cy="621" r="1" fill="#ffffff" opacity="0.27"/><circle cx="1161" cy="383" r="1.5" fill="#ffffff" opacity="0.73"/><circle cx="1583" cy="98" r="3" fill="#a9dfff" opacity="0.74"/><circle cx="391" cy="357" r="3" fill="#ff8738" opacity="0.43"/><circle cx="1394" cy="281" r="1.5" fill="#a9dfff" opacity="0.67"/><circle cx="546" cy="466" r="2" fill="#a9dfff" opacity="0.56"/><circle cx="1681" cy="178" r="1.5" fill="#ff8738" opacity="0.62"/><circle cx="671" cy="445" r="1.5" fill="#ffffff" opacity="0.49"/><circle cx="89" cy="339" r="2" fill="#a9dfff" opacity="0.23"/><circle cx="917" cy="414" r="1.5" fill="#ff8738" opacity="0.70"/><circle cx="1015" cy="689" r="1.5" fill="#ffd27a" opacity="0.48"/><circle cx="1233" cy="511" r="1" fill="#a9dfff" opacity="0.46"/><circle cx="945" cy="410" r="1.5" fill="#ff8738" opacity="0.49"/><circle cx="715" cy="551" r="3" fill="#ff8738" opacity="0.58"/><circle cx="1144" cy="451" r="1" fill="#ff8738" opacity="0.65"/><circle cx="1785" cy="2" r="3" fill="#ffffff" opacity="0.21"/><circle cx="189" cy="155" r="1" fill="#ff8738" opacity="0.66"/><circle cx="1637" cy="496" r="1.5" fill="#ff8738" opacity="0.67"/><circle cx="1586" cy="513" r="3" fill="#ffd27a" opacity="0.59"/><circle cx="1838" cy="807" r="3" fill="#ff8738" opacity="0.37"/><circle cx="1064" cy="535" r="1.5" fill="#a9dfff" opacity="0.36"/><circle cx="67" cy="703" r="1.5" fill="#ff8738" opacity="0.19"/><circle cx="238" cy="303" r="3" fill="#a9dfff" opacity="0.59"/><circle cx="1820" cy="91" r="1" fill="#ffffff" opacity="0.74"/><circle cx="584" cy="166" r="3" fill="#a9dfff" opacity="0.39"/><circle cx="820" cy="805" r="1.5" fill="#ffd27a" opacity="0.28"/><circle cx="1211" cy="199" r="3" fill="#a9dfff" opacity="0.74"/><circle cx="1401" cy="315" r="3" fill="#ff8738" opacity="0.44"/><circle cx="1522" cy="568" r="1.5" fill="#ffd27a" opacity="0.52"/><circle cx="237" cy="642" r="1" fill="#a9dfff" opacity="0.42"/><circle cx="836" cy="391" r="1.5" fill="#ffffff" opacity="0.62"/><circle cx="1632" cy="91" r="1" fill="#ffd27a" opacity="0.33"/><circle cx="935" cy="434" r="1.5" fill="#ffd27a" opacity="0.45"/><circle cx="602" cy="518" r="3" fill="#ffd27a" opacity="0.41"/><circle cx="1309" cy="349" r="2" fill="#ffd27a" opacity="0.46"/><circle cx="914" cy="488" r="3" fill="#ffffff" opacity="0.57"/><circle cx="1474" cy="375" r="3" fill="#a9dfff" opacity="0.73"/><circle cx="851" cy="737" r="1" fill="#ffd27a" opacity="0.19"/><circle cx="671" cy="667" r="2" fill="#ffffff" opacity="0.60"/><circle cx="1249" cy="382" r="2" fill="#a9dfff" opacity="0.32"/><circle cx="630" cy="97" r="1" fill="#a9dfff" opacity="0.50"/><circle cx="151" cy="431" r="1.5" fill="#ff8738" opacity="0.70"/><circle cx="1647" cy="607" r="1" fill="#ff8738" opacity="0.29"/><circle cx="1736" cy="588" r="1.5" fill="#ffd27a" opacity="0.68"/><circle cx="1346" cy="708" r="1" fill="#ffffff" opacity="0.50"/><circle cx="1760" cy="406" r="2" fill="#a9dfff" opacity="0.62"/><circle cx="240" cy="620" r="2" fill="#a9dfff" opacity="0.20"/><circle cx="1886" cy="549" r="2" fill="#ffffff" opacity="0.41"/><circle cx="1183" cy="356" r="1" fill="#a9dfff" opacity="0.71"/><circle cx="910" cy="723" r="3" fill="#ff8738" opacity="0.59"/><circle cx="1237" cy="179" r="2" fill="#ff8738" opacity="0.65"/><circle cx="703" cy="572" r="3" fill="#ff8738" opacity="0.29"/><circle cx="886" cy="656" r="1.5" fill="#ffffff" opacity="0.71"/><circle cx="383" cy="655" r="1.5" fill="#ff8738" opacity="0.74"/><circle cx="1625" cy="368" r="3" fill="#ffffff" opacity="0.53"/><circle cx="338" cy="318" r="1.5" fill="#ffffff" opacity="0.51"/><circle cx="204" cy="651" r="2" fill="#a9dfff" opacity="0.35"/><circle cx="1741" cy="43" r="3" fill="#ff8738" opacity="0.22"/><circle cx="1555" cy="199" r="3" fill="#a9dfff" opacity="0.28"/><circle cx="1656" cy="770" r="3" fill="#ffd27a" opacity="0.68"/><circle cx="354" cy="180" r="3" fill="#a9dfff" opacity="0.47"/><circle cx="1822" cy="713" r="3" fill="#ffffff" opacity="0.41"/><circle cx="1665" cy="121" r="1.5" fill="#ffffff" opacity="0.42"/><circle cx="1308" cy="318" r="2" fill="#ffffff" opacity="0.38"/><circle cx="1857" cy="534" r="3" fill="#a9dfff" opacity="0.48"/><circle cx="25" cy="681" r="1.5" fill="#ff8738" opacity="0.58"/><circle cx="198" cy="522" r="3" fill="#ffffff" opacity="0.51"/><circle cx="817" cy="596" r="1.5" fill="#ffd27a" opacity="0.38"/><circle cx="1807" cy="193" r="1" fill="#ffffff" opacity="0.41"/><circle cx="64" cy="17" r="3" fill="#ffd27a" opacity="0.66"/><circle cx="364" cy="744" r="1" fill="#ffd27a" opacity="0.36"/><circle cx="975" cy="806" r="1.5" fill="#ffffff" opacity="0.30"/><circle cx="592" cy="840" r="1.5" fill="#a9dfff" opacity="0.70"/><circle cx="791" cy="629" r="3" fill="#ffffff" opacity="0.25"/><circle cx="252" cy="28" r="1" fill="#a9dfff" opacity="0.25"/><circle cx="789" cy="69" r="1" fill="#ff8738" opacity="0.60"/><circle cx="374" cy="639" r="3" fill="#ffffff" opacity="0.49"/><circle cx="108" cy="719" r="3" fill="#ff8738" opacity="0.44"/><circle cx="380" cy="35" r="3" fill="#ff8738" opacity="0.46"/><circle cx="1452" cy="730" r="2" fill="#ffffff" opacity="0.26"/><circle cx="518" cy="180" r="1" fill="#ff8738" opacity="0.19"/><circle cx="569" cy="80" r="2" fill="#a9dfff" opacity="0.62"/><circle cx="1099" cy="123" r="2" fill="#ffd27a" opacity="0.64"/><circle cx="1179" cy="265" r="3" fill="#a9dfff" opacity="0.59"/><circle cx="1298" cy="57" r="1" fill="#a9dfff" opacity="0.49"/><circle cx="438" cy="150" r="2" fill="#ff8738" opacity="0.27"/><circle cx="55" cy="383" r="1" fill="#ff8738" opacity="0.35"/><circle cx="1743" cy="474" r="1.5" fill="#a9dfff" opacity="0.20"/><circle cx="1247" cy="157" r="3" fill="#a9dfff" opacity="0.37"/><circle cx="1370" cy="480" r="1.5" fill="#ffffff" opacity="0.46"/><circle cx="797" cy="170" r="3" fill="#ffd27a" opacity="0.74"/><circle cx="1013" cy="532" r="2" fill="#ff8738" opacity="0.27"/><circle cx="1314" cy="324" r="2" fill="#a9dfff" opacity="0.21"/><circle cx="109" cy="689" r="2" fill="#ffffff" opacity="0.40"/><circle cx="1589" cy="805" r="1" fill="#ffffff" opacity="0.25"/><circle cx="20" cy="374" r="3" fill="#a9dfff" opacity="0.56"/><circle cx="1708" cy="579" r="1" fill="#ffffff" opacity="0.22"/><circle cx="750" cy="827" r="3" fill="#ff8738" opacity="0.36"/><circle cx="1534" cy="129" r="3" fill="#a9dfff" opacity="0.57"/><circle cx="1527" cy="247" r="1.5" fill="#ff8738" opacity="0.30"/><circle cx="1055" cy="612" r="3" fill="#ff8738" opacity="0.63"/><circle cx="390" cy="69" r="1.5" fill="#a9dfff" opacity="0.22"/><circle cx="811" cy="466" r="1" fill="#a9dfff" opacity="0.71"/><circle cx="930" cy="183" r="1.5" fill="#ffd27a" opacity="0.40"/><circle cx="425" cy="253" r="2" fill="#ffd27a" opacity="0.52"/><circle cx="317" cy="60" r="3" fill="#ff8738" opacity="0.38"/><circle cx="10" cy="333" r="2" fill="#ffffff" opacity="0.41"/><circle cx="581" cy="470" r="1.5" fill="#ffffff" opacity="0.69"/></svg>